# xmcd
#
# Track frame offsets: 
#        150
#        32846
#        60213
#        85761
#        122563
#        166792
#        198379
#        247956
#        303003
#
# Disc length: 4326 seconds
#
# Revision: 0
# Processed by: cddbd v1.5.2PL0 Copyright (c) Steve Scherf et al.
# Submitted via: ExactAudioCopy v0.95a5
#
DISCID=5f10e409
DTITLE=余青欣 - 清新致爽 CD2
DYEAR=2015
DGENRE=Folk
TTITLE0=鸥鹭忘机
TTITLE1=屈原问渡
TTITLE2=阳关三叠
TTITLE3=那罗法曲
TTITLE4=梅花三弄
TTITLE5=普庵咒
TTITLE6=忆故人
TTITLE7=离骚
TTITLE8=鸥鹭忘机 古琴与排箫
EXTD=
EXTT0=
EXTT1=
EXTT2=
EXTT3=
EXTT4=
EXTT5=
EXTT6=
EXTT7=
EXTT8=
PLAYORDER=
